<?xml version="1.0" encoding="utf-8"?>
<!-- Generator: Adobe Illustrator 16.0.0, SVG Export Plug-In . SVG Version: 6.00 Build 0)  -->
<!DOCTYPE svg PUBLIC "-//W3C//DTD SVG 1.1//EN" "http://www.w3.org/Graphics/SVG/1.1/DTD/svg11.dtd">
<svg version="1.1" id="Layer_1" xmlns="http://www.w3.org/2000/svg" xmlns:xlink="http://www.w3.org/1999/xlink" x="0px" y="0px"
	 width="55.914px" height="66.56px" viewBox="0 0 55.914 66.56" enable-background="new 0 0 55.914 66.56" xml:space="preserve">
<g>
	<path d="M52.656,66.56c-16.467,0-32.933,0-49.399,0c-0.031-0.028-0.058-0.071-0.095-0.083C0.907,65.732-0.001,64.463,0,62.094
		c0.003-11.499,0.002-22.999,0.003-34.499c0-7.796-0.001-15.593,0.001-23.389C0.005,2.131,1.063,0.717,3.037,0.12
		C3.115,0.096,3.184,0.041,3.256,0C14.003,0,24.75,0,35.496,0c0.722,0.412,1.574,0.692,2.145,1.257
		c5.686,5.62,11.322,11.288,16.977,16.938c0.873,0.873,1.307,1.904,1.297,3.146c-0.019,2.231-0.006,4.463-0.006,6.694
		c0,11.46,0.002,22.919-0.002,34.379c0,1.979-1.09,3.438-2.969,4.014C52.839,66.457,52.75,66.515,52.656,66.56z M34.557,2.661
		c-0.314,0-0.567,0-0.819,0C23.989,2.66,14.241,2.66,4.492,2.658c-1.423,0-1.835,0.422-1.835,1.872
		c0.001,17.613,0.001,35.225,0.001,52.838c0,0.228,0,0.454,0,0.809c0.266-0.227,0.415-0.346,0.556-0.476
		c4.296-3.938,8.591-7.876,12.886-11.813c1.003-0.92,1.591-0.882,2.496,0.167c0.735,0.853,1.466,1.71,2.2,2.564
		c0.898,1.046,1.797,2.091,2.719,3.163c0.22-0.21,0.393-0.369,0.559-0.535c4.413-4.41,8.824-8.822,13.236-13.233
		c1.024-1.023,1.633-1.013,2.602,0.037c4.143,4.49,8.286,8.979,12.429,13.468c0.258,0.28,0.515,0.562,0.867,0.945
		c0-10.473,0-20.791,0-31.157c-0.301,0-0.559,0-0.816,0c-4.506,0-9.012,0.001-13.518,0c-2.581-0.001-4.277-1.699-4.283-4.269
		c-0.009-4.528-0.022-9.055-0.034-13.583C34.557,3.22,34.557,2.987,34.557,2.661z M25.322,53.846
		c0.051,0.079,0.089,0.155,0.143,0.218c2.718,3.173,5.432,6.35,8.169,9.506c0.165,0.19,0.514,0.312,0.777,0.313
		c5.716,0.019,11.432,0.017,17.147,0.014c1.225,0,1.688-0.465,1.691-1.686c0.005-1.688-0.013-3.377,0.01-5.065
		c0.007-0.485-0.12-0.847-0.458-1.211c-4.461-4.81-8.905-9.635-13.354-14.456c-0.288-0.312-0.583-0.617-0.855-0.905
		C34.157,45.011,29.764,49.403,25.322,53.846z M17.23,48.55c-0.11,0.062-0.173,0.084-0.219,0.125
		c-4.697,4.303-9.394,8.604-14.081,12.917c-0.141,0.129-0.243,0.36-0.259,0.553c-0.104,1.2,0.452,1.753,1.744,1.753
		c8.428,0.001,16.855-0.001,25.283-0.005c0.183,0,0.365-0.026,0.643-0.048C25.936,58.705,21.598,53.645,17.23,48.55z M50.901,18.624
		c-4.555-4.557-9.156-9.16-13.629-13.634c0,3.856-0.005,7.927,0.003,11.998c0.002,1.212,0.434,1.634,1.65,1.636
		c3.271,0.005,6.542,0.001,9.812,0C49.516,18.624,50.293,18.624,50.901,18.624z"/>
	<path fill-rule="evenodd" clip-rule="evenodd" d="M18.622,34.608c0.02,2.919-2.335,5.298-5.259,5.313
		c-2.96,0.017-5.385-2.361-5.38-5.276c0.004-2.954,2.377-5.353,5.31-5.368C16.222,29.263,18.602,31.642,18.622,34.608z
		 M10.659,34.622c0.002,1.449,1.185,2.644,2.631,2.658c1.454,0.015,2.7-1.227,2.689-2.68c-0.01-1.454-1.19-2.631-2.646-2.639
		C11.836,31.953,10.657,33.126,10.659,34.622z"/>
</g>
</svg>
