<?xml version="1.0" encoding="utf-8"?>
<!-- Generator: Adobe Illustrator 16.0.0, SVG Export Plug-In . SVG Version: 6.00 Build 0)  -->
<!DOCTYPE svg PUBLIC "-//W3C//DTD SVG 1.1//EN" "http://www.w3.org/Graphics/SVG/1.1/DTD/svg11.dtd">
<svg version="1.1" id="Layer_1" xmlns="http://www.w3.org/2000/svg" xmlns:xlink="http://www.w3.org/1999/xlink" x="0px" y="0px"
	 width="237.5px" height="28px" viewBox="0 0 237.5 28" enable-background="new 0 0 237.5 28" xml:space="preserve">
<rect y="1" fill="none" width="290" height="27"/>
<g enable-background="new    ">
	<path fill="#00D5B1" d="M3.989,1.004h2.622v21.087h12.614v4.749H1.33V3.777C1.33,2.295,2.508,1.004,3.989,1.004z"/>
	<path fill="#00D5B1" d="M36.743,1.004l9.271,25.836h-5.585l-1.71-5.281h-9.992l-1.71,5.281h-5.661L29.98,2.713
		c0.38-1.14,1.216-1.709,2.507-1.709H36.743z M30.132,17.189h7.105l-3.571-10.98L30.132,17.189z"/>
	<path fill="#00D5B1" d="M48.791,2.941V1.004h20.251v4.483l-14.096,16.68h13.792v4.673H48.563v-4.521l14.02-16.642H51.526
		C50.045,5.677,48.791,4.423,48.791,2.941z"/>
	<path fill="#00D5B1" d="M80.52,26.84v-9.65L71.173,1.004h6.459l5.586,11.132l4.369-9.574c0.494-1.026,1.292-1.558,2.432-1.558
		h4.331l-8.473,16.186v9.65H80.52z"/>
</g>
<g enable-background="new    ">
	<path d="M113.54,14.454c1.102,0.38,1.938,0.987,2.47,1.785c0.456,0.874,0.684,2.166,0.798,3.838l0.228,5.053
		c0.038,0.798,0.343,1.368,0.836,1.71h-5.813c-0.266-0.494-0.38-1.025-0.418-1.558c-0.114-0.38-0.19-1.862-0.228-4.369
		c-0.19-3.116-0.76-4.104-3.875-4.104h-5.624v10.03h-5.281V3.777c0-1.482,1.178-2.773,2.66-2.773h9.803
		c5.357,0,8.32,2.051,8.32,7.371C117.415,11.643,116.01,13.77,113.54,14.454z M108.449,5.487h-6.535v6.801h6.231
		c2.507,0,3.913-0.912,3.913-3.42C112.058,6.513,110.805,5.487,108.449,5.487z"/>
	<path d="M120.534,3.777c0-1.786,0.874-2.736,2.66-2.773h16.033v4.483H125.74v5.547h10.068v1.71
		c0.038,1.785-0.874,2.659-2.736,2.659h-7.332v6.688h13.487v4.749h-18.693V3.777z"/>
	<path d="M157.126,1.004l9.271,25.836h-5.585l-1.71-5.281h-9.992l-1.71,5.281h-5.661l8.625-24.126
		c0.38-1.14,1.216-1.709,2.507-1.709H157.126z M150.515,17.189h7.105l-3.571-10.98L150.515,17.189z"/>
	<path d="M190.831,13.922c0,6.345-2.736,11.057-7.713,12.386c-1.292,0.342-3.116,0.532-5.472,0.532h-8.7V3.777
		c0-1.786,0.874-2.736,2.659-2.773h7.447C187.26,1.004,190.831,5.677,190.831,13.922z M179.053,5.525h-4.901v16.642h4.217
		c5.244,0,7.067-2.812,7.067-8.245C185.436,8.755,183.84,5.525,179.053,5.525z"/>
	<path d="M193.418,3.777c0-1.786,0.874-2.736,2.66-2.773h16.033v4.483h-13.488v5.547h10.069v1.71
		c0.038,1.785-0.874,2.659-2.736,2.659h-7.333v6.688h13.488v4.749h-18.693V3.777z"/>
	<path d="M231.605,14.454c1.102,0.38,1.938,0.987,2.47,1.785c0.456,0.874,0.684,2.166,0.798,3.838l0.228,5.053
		c0.038,0.798,0.343,1.368,0.836,1.71h-5.812c-0.267-0.494-0.38-1.025-0.418-1.558c-0.114-0.38-0.19-1.862-0.229-4.369
		c-0.189-3.116-0.76-4.104-3.875-4.104h-5.623v10.03h-5.281V3.777c0-1.482,1.178-2.773,2.659-2.773h9.803
		c5.357,0,8.32,2.051,8.32,7.371C235.48,11.643,234.075,13.77,231.605,14.454z M226.515,5.487h-6.535v6.801h6.23
		c2.508,0,3.914-0.912,3.914-3.42C230.124,6.513,228.87,5.487,226.515,5.487z"/>
</g>
</svg>
